<?xml version="1.0" encoding="UTF-8" standalone="no"?>
<svg
   version="1.1"
   width="1000"
   height="1000"
   id="svg3824"
   sodipodi:docname="IdeenExpo_2011_Logo.svg"
   inkscape:version="1.2 (dc2aedaf03, 2022-05-15)"
   xmlns:inkscape="http://www.inkscape.org/namespaces/inkscape"
   xmlns:sodipodi="http://sodipodi.sourceforge.net/DTD/sodipodi-0.dtd"
   xmlns="http://www.w3.org/2000/svg"
   xmlns:svg="http://www.w3.org/2000/svg">
  <sodipodi:namedview
     id="namedview507"
     pagecolor="#505050"
     bordercolor="#eeeeee"
     borderopacity="1"
     inkscape:showpageshadow="0"
     inkscape:pageopacity="0"
     inkscape:pagecheckerboard="0"
     inkscape:deskcolor="#505050"
     showgrid="false"
     inkscape:zoom="0.63813679"
     inkscape:cx="551.60587"
     inkscape:cy="923.78313"
     inkscape:window-width="1920"
     inkscape:window-height="1001"
     inkscape:window-x="-9"
     inkscape:window-y="-9"
     inkscape:window-maximized="1"
     inkscape:current-layer="svg3824" />
  <defs
     id="defs3826" />
  <g
     transform="matrix(2.7018167,0,0,2.7018167,-471.1788,-763.99175)"
     id="layer1">
    <path
       id="path44"
       style="fill:#000000;fill-opacity:1;fill-rule:nonzero;stroke:none"
       inkscape:label="path44"
       d="M 174.39333 497.51448 L 174.39333 554.03099 L 186.76637 554.03099 L 186.76637 497.51448 L 174.39333 497.51448 z M 243.70144 497.72484 L 243.70144 509.57306 L 217.38306 509.57306 C 201.88569 509.57306 194.21072 514.24922 194.21072 523.83285 L 194.21072 540.71458 C 194.21072 549.40486 201.99052 553.82135 217.48788 553.82135 L 231.53876 553.82135 C 237.27216 553.82135 242.2633 552.75212 246.74265 550.78086 C 252.47185 548.1805 255.44556 544.49316 255.44556 539.56084 L 255.44556 497.72484 L 243.70144 497.72484 z M 285.43334 509.15378 C 279.43151 509.15378 274.3523 510.12239 270.22945 512.08945 C 264.6764 514.59755 261.94654 518.44341 261.94654 523.72803 L 261.94654 539.14156 C 261.94654 543.17213 263.84609 546.75833 267.60824 549.62713 C 271.28232 552.40365 277.98866 553.82135 287.84491 553.82135 L 296.443 553.82135 L 296.443 543.44061 L 294.34589 543.44061 C 293.26799 543.53291 292.33706 543.44061 291.61986 543.44061 C 280.06079 543.44061 274.21404 541.37693 274.21404 537.25409 L 322.55174 537.25409 L 322.55174 522.05092 C 322.55174 517.57577 320.2031 514.20756 315.63148 511.87981 C 311.9616 510.08891 307.75474 509.15378 302.73434 509.15378 L 285.43334 509.15378 z M 352.22506 509.15378 C 346.22323 509.15378 341.24537 510.12239 337.12671 512.08945 C 331.56947 514.59755 328.73826 518.44341 328.73826 523.72803 L 328.73826 539.14156 C 328.73826 543.17213 330.63781 546.75833 334.39996 549.62713 C 338.06985 552.40365 344.77619 553.82135 354.63663 553.82135 L 363.23472 553.82135 L 363.23472 543.44061 L 361.13761 543.44061 C 360.05971 543.53291 359.12878 543.44061 358.41158 543.44061 C 346.8567 543.44061 341.00576 541.37693 341.00576 537.25409 L 389.44828 537.25409 L 389.44828 522.05092 C 389.44828 517.57577 387.09545 514.20756 382.52802 511.87981 C 378.85814 510.08891 374.54226 509.15378 369.52606 509.15378 L 352.22506 509.15378 z M 418.38786 509.15378 C 403.33507 509.15378 395.94926 513.60377 395.94926 522.4702 L 395.94926 554.03099 L 407.7982 554.03099 L 407.7982 523.20393 C 407.7982 521.86182 409.09781 520.89319 411.78206 520.26826 C 413.57296 519.81949 415.50672 519.5338 417.65413 519.5338 L 433.48693 519.5338 C 435.63434 519.5338 437.68126 519.81949 439.56863 520.26826 C 442.42904 520.89319 443.86768 521.84927 443.86768 523.09911 L 443.86768 554.03099 L 455.82072 554.03099 L 455.82072 522.36538 C 455.82072 513.58704 448.35938 509.15378 433.48693 509.15378 L 418.38786 509.15378 z M 284.07069 519.42899 L 301.26615 519.42899 C 307.72094 519.42899 310.91316 520.69585 310.91316 523.20393 L 310.91316 526.66442 L 273.79476 526.66442 L 273.79476 523.09911 C 273.79476 520.59522 277.26358 519.42899 284.07069 519.42899 z M 350.86241 519.42899 L 368.05859 519.42899 C 374.50918 519.42899 377.8097 520.69585 377.8097 523.20393 L 377.8097 526.66442 L 340.6913 526.66442 L 340.6913 523.09911 C 340.6913 520.59522 344.05111 519.42899 350.86241 519.42899 z M 216.75415 519.95381 L 243.70144 519.95381 L 243.70144 539.3512 C 243.70144 542.03966 239.30166 543.44061 230.69948 543.44061 L 214.86667 543.44061 C 208.95293 543.52871 206.16376 541.98107 206.16376 538.93192 L 206.16376 524.04249 C 206.16376 521.26176 209.58634 519.95381 216.75415 519.95381 z M 198.50977 574.37248 C 192.41987 574.37248 187.29042 575.33763 182.99142 577.30888 C 177.43837 579.90505 174.60296 583.88502 174.60296 589.26192 L 174.60296 615.68511 C 174.60296 620.78939 177.31679 624.62689 182.78178 627.21887 C 186.90042 629.28659 191.84555 630.25936 197.67121 630.25936 L 237.20046 630.25936 L 237.20046 619.56488 L 198.09049 619.56488 C 190.65427 619.56488 186.97601 618.13463 186.97601 615.26583 L 186.97601 607.92557 L 237.20046 607.92557 L 237.20046 597.23109 L 186.87119 597.23109 L 186.87119 589.26192 C 186.87119 586.30504 190.98525 584.85805 199.13868 584.85805 L 211.09245 584.85805 L 211.09245 574.37248 L 198.50977 574.37248 z M 242.75806 585.17251 L 263.41401 608.24076 L 242.75806 630.78418 L 257.75231 630.78418 L 270.75427 616.31403 L 283.65069 630.78418 L 298.64494 630.78418 L 277.98899 608.24076 L 298.64494 585.17251 L 284.48996 585.17251 L 270.75427 600.27158 L 256.80821 585.17251 L 242.75806 585.17251 z M 326.85079 585.69661 C 311.89446 585.69661 304.517 590.2059 304.517 599.43302 L 304.517 641.79384 L 316.2604 641.79384 L 316.2604 629.9449 L 343.83733 629.9449 C 357.99258 629.9449 365.01738 625.07584 365.01738 615.58029 L 365.01738 599.32748 C 365.01738 590.28071 357.2041 585.69661 341.53058 585.69661 L 326.85079 585.69661 z M 395.32034 585.69661 C 389.67083 585.69661 384.7592 586.77912 380.64055 588.84264 C 375.35592 591.53109 372.6721 595.37275 372.6721 600.48122 L 372.6721 615.89475 C 372.6721 621.0913 375.35592 624.81559 380.64055 627.32369 C 384.66693 629.29494 389.5995 630.25936 395.42516 630.25936 L 410.73387 630.25936 C 416.47146 630.25936 421.33633 629.31168 425.09848 627.42851 C 430.11469 624.9204 432.43874 621.0913 432.43874 615.89475 L 432.43874 600.3764 C 432.43874 590.61242 425.24562 585.69661 410.73387 585.69661 L 395.32034 585.69661 z M 327.27006 596.07735 L 344.15179 596.07735 C 350.14942 596.07735 353.16916 597.10108 353.16916 599.43302 L 353.16916 615.68511 C 353.16916 618.28129 350.14942 619.56488 344.15179 619.56488 L 316.2604 619.56488 L 316.2604 599.64266 C 316.2604 597.22685 320.0142 596.07735 327.27006 596.07735 z M 395.52998 596.07735 L 410.41941 596.07735 C 412.65489 596.07735 414.61302 596.27424 416.50039 596.81109 C 419.18465 597.52829 420.48498 598.64428 420.48498 600.16676 L 420.48498 615.47547 C 420.48498 616.81759 419.18465 618.03769 416.50039 618.93524 C 414.3446 619.56017 412.31513 619.87934 410.52423 619.87934 L 395.52998 619.87934 C 393.46646 619.87934 391.28961 619.66499 389.13382 619.04006 C 386.09305 618.23479 384.52032 616.99794 384.52032 615.47547 L 384.52032 600.9005 C 384.52032 599.28995 385.9673 598.0231 388.92418 597.12555 C 391.16386 596.40836 393.37837 596.07735 395.52998 596.07735 z " />
    <path
       id="path96"
       style="fill:#000000;fill-opacity:1;fill-rule:nonzero;stroke:none"
       d="m 517.63347,330.88542 c -6.71901,0 -13.15775,2.49709 -18.11523,7.03515 -5.30559,4.84427 -8.40919,11.4622 -8.73633,18.64258 -0.30617,6.7358 1.90389,13.19471 6.17774,18.35352 l -42.91407,50.20898 c -2.31935,-1.09469 -4.86554,-1.69922 -7.47851,-1.69922 -1.06531,0 -2.11667,0.10001 -3.14844,0.29297 l -13.29102,-27.72265 c 0.4991,-0.38586 0.98533,-0.78089 1.45508,-1.21289 9.05097,-8.27505 9.68882,-22.37119 1.41797,-31.41797 -4.19834,-4.60097 -10.18518,-7.23828 -16.42187,-7.23828 -5.56145,0 -10.88251,2.06294 -14.98438,5.8125 -9.05936,8.27085 -9.70222,22.36643 -1.43555,31.42578 4.20673,4.60098 10.19299,7.24023 16.42969,7.24023 1.7867,0 3.54689,-0.23909 5.25391,-0.6543 l 13.30859,27.76563 c -0.12162,0.10487 -0.26733,0.18001 -0.38476,0.28906 -2.99882,2.73879 -4.83246,6.37022 -5.42383,10.33789 l -48.9336,11.10547 c -0.80108,-1.62314 -1.82459,-3.16166 -3.0996,-4.5625 -3.72021,-4.0809 -9.02123,-6.42187 -14.54493,-6.42187 -4.92392,0 -9.63878,1.83449 -13.27929,5.15625 -3.88379,3.54824 -6.15577,8.39121 -6.39063,13.64648 -0.24327,5.25526 1.58065,10.28838 5.12891,14.16797 3.71601,4.07671 9.01791,6.41406 14.5332,6.41406 4.92393,0 9.63683,-1.83029 13.27734,-5.15625 4.17737,-3.81668 6.31376,-9.03381 6.38086,-14.28906 l 47.98829,-10.89258 c 0.76752,1.88736 1.82875,3.66301 3.24218,5.21485 3.30919,3.63213 8.03202,5.71093 12.94336,5.71093 2.0048,0 3.95868,-0.38085 5.8125,-1.03515 l 38.74219,55.96679 c -11.29064,10.82929 -11.96246,28.79765 -1.35547,40.42383 5.47338,5.98505 13.27046,9.41992 21.39453,9.41992 7.2391,0 14.17756,-2.68578 19.5293,-7.57617 11.78556,-10.77895 12.61569,-29.14051 1.85351,-40.92187 -5.46917,-5.99343 -13.26685,-9.42774 -21.38671,-9.42774 -4.3745,0 -8.62685,0.99384 -12.49805,2.84766 l -38.75391,-55.98438 c 2.47455,-2.93589 3.96838,-6.53332 4.14453,-10.42968 0.17197,-3.82926 -0.94554,-7.49566 -3.07617,-10.60352 l 42.93555,-50.23242 c 4.12285,2.44098 8.8555,3.78711 13.7207,3.78711 6.72742,0 13.16528,-2.50071 18.12696,-7.04297 10.94252,-10.00722 11.71283,-27.05159 1.72656,-37.99414 -5.0917,-5.56145 -12.33001,-8.75 -19.8711,-8.75 z m 0.002,9.17773 c 4.97006,0 9.74263,2.10636 13.09375,5.76367 6.57642,7.20551 6.06521,18.43777 -1.14453,25.03516 -3.26724,2.98623 -7.50457,4.63281 -11.9336,4.63281 -4.96587,0 -9.73315,-2.09994 -13.08008,-5.76562 -3.19174,-3.49372 -4.83304,-8.0274 -4.61914,-12.75 0.2139,-4.7268 2.25764,-9.08923 5.75977,-12.28516 3.26305,-2.98626 7.49901,-4.63086 11.92383,-4.63086 z m -101.05664,25.24024 c 3.66148,0 7.17642,1.54868 9.64257,4.2539 4.86102,5.31398 4.48391,13.59406 -0.83007,18.45508 -2.41164,2.20192 -5.53969,3.41406 -8.80274,3.41406 -3.66568,0 -7.18617,-1.54896 -9.65234,-4.25 -4.85683,-5.31818 -4.47863,-13.59797 0.84375,-18.45898 2.41164,-2.20193 5.53578,-3.41406 8.79883,-3.41406 z m -53.8125,82.34375 c 2.99042,0 5.74628,1.2135 7.76367,3.42383 3.90056,4.27383 3.59443,10.93676 -0.6836,14.8457 -1.94608,1.77412 -4.46235,2.75586 -7.08789,2.75586 -2.99042,0 -5.74657,-1.21547 -7.75976,-3.42578 -1.89156,-2.07191 -2.8641,-4.75661 -2.73828,-7.5625 0.12582,-2.80169 1.34215,-5.38939 3.41406,-7.28516 1.94609,-1.77412 4.46206,-2.75195 7.0918,-2.75195 z m 148.41406,66.82031 c 5.54885,0 10.87043,2.344 14.60742,6.4375 7.35233,8.05277 6.781,20.59826 -1.26758,27.95898 -3.65309,3.33435 -8.39077,5.16993 -13.33984,5.16993 -5.54888,0 -10.87631,-2.34432 -14.61328,-6.4336 -7.35654,-8.06116 -6.79106,-20.60469 1.26172,-27.95703 3.66147,-3.33855 8.40245,-5.17578 13.35156,-5.17578 z" />
  </g>
</svg>
