<?xml version="1.0" encoding="UTF-8" standalone="no"?>
<!-- Created with Inkscape (http://www.inkscape.org/) -->

<svg
   width="1000"
   height="1300"
   viewBox="0 0 264.58333 343.95834"
   version="1.1"
   id="svg5"
   inkscape:version="1.2 (dc2aedaf03, 2022-05-15)"
   sodipodi:docname="Ostfalia - modified.svg"
   xmlns:inkscape="http://www.inkscape.org/namespaces/inkscape"
   xmlns:sodipodi="http://sodipodi.sourceforge.net/DTD/sodipodi-0.dtd"
   xmlns="http://www.w3.org/2000/svg"
   xmlns:svg="http://www.w3.org/2000/svg">
  <sodipodi:namedview
     id="namedview7"
     pagecolor="#505050"
     bordercolor="#eeeeee"
     borderopacity="1"
     inkscape:showpageshadow="0"
     inkscape:pageopacity="0"
     inkscape:pagecheckerboard="0"
     inkscape:deskcolor="#505050"
     inkscape:document-units="px"
     showgrid="false"
     inkscape:zoom="0.36257716"
     inkscape:cx="306.14173"
     inkscape:cy="842.57927"
     inkscape:window-width="1920"
     inkscape:window-height="1001"
     inkscape:window-x="-9"
     inkscape:window-y="-9"
     inkscape:window-maximized="1"
     inkscape:current-layer="layer1" />
  <defs
     id="defs2" />
  <g
     inkscape:label="Layer 1"
     inkscape:groupmode="layer"
     id="layer1">
    <path
       d="M 49.513559,0 215.6967,0.02016586 C 244.92636,-0.08671316 264.58324,24.283587 264.58324,49.333947 V 215.60303 c 0.0491,25.50839 -20.04371,48.9403 -49.3623,48.9803 H 23.422953 L 156.5971,131.41698 v 45.57441 l -55.6493,55.35191 114.35762,0.005 c 9.1904,0 17.02914,-6.44265 17.02914,-16.93589 V 49.10278 C 232.30766,38.880775 224.2335,32.242445 215.49661,32.229068 l -166.178686,0.01344 c -9.497194,-0.06049 -16.993578,7.11848 -16.993578,16.811399 l 0.04907,115.501343 55.773793,-55.96106 H 133.73018 L 2.531582e-4,242.38307 V 49.05391 C -0.08424104,22.47397 20.991011,0.0024199 49.51372,0.0024199"
       style="fill:#000000;fill-opacity:1;fill-rule:nonzero;stroke:none;stroke-width:4.44627"
       id="path2512" />
  </g>
  <g
     inkscape:groupmode="layer"
     id="layer2"
     inkscape:label="Text">
    <g
       id="g455"
       transform="translate(-0.06153852,-6.5279691)">
      <path
         d="m 20.029071,312.72036 c 0,7.54667 0.449894,12.73504 1.342436,15.56138 0.917939,2.83365 2.917087,4.24503 5.990183,4.24503 3.025928,0 4.977909,-1.43678 5.845055,-4.31754 0.892537,-2.8772 1.33881,-8.14174 1.33881,-15.78639 0,-7.86595 -0.486205,-13.13051 -1.451289,-15.7827 -0.943335,-2.68489 -2.902567,-4.02371 -5.881335,-4.02371 -2.949734,0 -4.887201,1.4041 -5.805139,4.2051 -0.917938,2.80825 -1.378721,8.10545 -1.378721,15.89883 M 8.3534799,308.74383 c 0,-9.27735 1.5129648,-15.66296 4.5388931,-19.16058 3.025934,-3.49395 7.822427,-5.24278 14.396754,-5.24278 6.400165,0 11.145871,1.71252 14.247999,5.13395 3.123887,3.42137 4.687646,9.76712 4.687646,19.04446 v 4.05273 4.20147 c 0,9.5023 -1.650842,15.8843 -4.948882,19.16059 -3.272652,3.24728 -7.884109,4.86908 -13.838006,4.86908 -6.922634,0 -11.831606,-1.86853 -14.734179,-5.61287 -2.898941,-3.74796 -4.3502251,-9.65829 -4.3502251,-17.74558 v -4.87269 z"
         style="fill:#000000;fill-opacity:1;fill-rule:nonzero;stroke:none;stroke-width:3.62821"
         id="path2496" />
      <path
         d="m 54.43179,327.64684 10.659691,0.004 h -0.0181 v 1.45495 c 0,1.81043 0.337448,3.09122 1.005016,3.835 0.696612,0.74741 1.814099,1.1175 3.35609,1.1175 1.269872,0 2.249488,-0.30826 2.949746,-0.92886 0.71838,-0.62042 1.081202,-1.62543 1.081202,-3.01141 0,-1.13927 -0.424505,-2.22046 -1.266252,-3.23637 -0.845366,-1.0159 -3.076719,-2.31841 -6.697677,-3.90758 l -1.933834,-0.81635 c -2.779212,-1.2118 -4.99968,-2.71391 -6.661406,-4.499 -1.661726,-1.78504 -2.488957,-3.81686 -2.488957,-6.09902 0,-3.56652 1.349703,-6.30943 4.056348,-8.21789 2.728412,-1.93385 6.530776,-2.90258 11.421619,-2.90258 4.041832,0 7.292704,0.99413 9.74901,2.97515 2.452673,1.95926 3.682629,4.46269 3.682629,7.51042 v 1.415 h 0.0181 v 0.005 h -10.656072 -0.0181 c 0,-2.5216 -0.301139,-4.12892 -0.899798,-4.82191 -0.598658,-0.71839 -1.520224,-1.07395 -2.768328,-1.07395 -1.37509,0 -2.369222,0.34447 -2.993281,1.04131 -0.624045,0.693 -0.936068,1.73062 -0.936068,3.12024 0,0.91795 0.47166,1.78148 1.415006,2.60146 0.9397,0.79096 2.626826,1.75602 5.057719,2.8989 l 2.605059,1.15019 c 3.769712,1.70886 6.374771,3.47941 7.811544,5.3153 1.440405,1.83227 2.158786,3.92574 2.158786,6.28047 0,3.63909 -1.364207,6.53799 -4.088987,8.69317 -2.728425,2.12979 -6.196998,3.19649 -10.409351,3.19649 -5.402407,0 -9.299117,-0.92886 -11.675592,-2.79376 -2.354706,-1.88301 -3.530256,-4.74934 -3.530256,-8.59884 v -1.7089 z"
         style="fill:#000000;fill-opacity:1;fill-rule:nonzero;stroke:none;stroke-width:3.62821"
         id="path2498" />
      <path
         d="m 89.356977,307.92385 v -6.69042 h 4.310319 v -5.88494 l 10.656064,-4.82915 v 10.71409 h 5.3879 v 6.69042 h -5.3879 v 21.55525 c 0,1.81044 0.22494,3.0259 0.67121,3.64633 0.44629,0.62405 1.44041,0.93248 2.9824,0.93248 0.49707,0 1.05218,-0.0384 1.67624,-0.10527 v 6.3929 c -2.0318,0.26878 -3.78061,0.40261 -5.24278,0.40261 -7.162091,0 -10.743134,-2.98968 -10.743134,-8.96897 v -23.85551 z"
         style="fill:#000000;fill-opacity:1;fill-rule:nonzero;stroke:none;stroke-width:3.62821"
         id="path2500" />
      <path
         d="m 114.18122,301.23343 h 4.76383 v -6.6505 c 0,-3.43954 0.86715,-5.91763 2.60506,-7.4306 1.76331,-1.53108 5.01056,-2.30026 9.75263,-2.30026 1.24086,0 2.47081,0.0493 3.68626,0.14864 l 0.0181,6.64326 c -0.4245,-0.0691 -0.81271,-0.10527 -1.16465,-0.10527 -1.70164,0 -2.83726,0.42454 -3.41416,1.26625 -0.55149,0.83808 -0.82723,2.15149 -0.82723,3.93297 v 4.49533 h 4.76385 v 6.69042 h -4.76385 v 32.0299 H 118.945 v -32.0299 h -4.76383 z"
         style="fill:#000000;fill-opacity:1;fill-rule:nonzero;stroke:none;stroke-width:3.62821"
         id="path2502" />
      <path
         d="m 159.57017,321.13418 c -3.56657,0 -5.96118,0.44649 -7.18387,1.3352 -1.21908,0.86715 -1.82865,2.61231 -1.82865,5.23912 0,4.23415 1.34612,6.34941 4.03824,6.34941 3.31617,0 4.97428,-2.67402 4.97428,-8.02201 z m -18.87761,-8.78752 c 0,-7.93852 4.655,-11.90781 13.96498,-11.90781 5.46411,0 9.42249,0.95787 11.88243,2.86632 2.45993,1.91203 3.68624,5.22096 3.68624,9.93403 v 19.94426 c 0,2.38013 0.1706,4.63689 0.51177,6.77029 h -10.02475 l -0.4646,-5.38429 c -2.1842,4.11804 -5.52938,6.17887 -10.02476,6.17887 -6.88633,0 -10.32589,-4.1035 -10.32589,-12.31053 0,-4.71309 1.25537,-8.10545 3.76246,-10.18806 2.51073,-2.08622 7.06412,-3.12748 13.67474,-3.12748 h 2.23499 v -3.18924 c 0,-1.80319 -0.28687,-3.16017 -0.86353,-4.07444 -0.57688,-0.93972 -1.66174,-1.40777 -3.26537,-1.40777 -1.57469,0 -2.65226,0.4827 -3.2255,1.44402 -0.5805,0.93973 -0.86716,2.42363 -0.86716,4.45183 z"
         style="fill:#000000;fill-opacity:1;fill-rule:nonzero;stroke:none;stroke-width:3.62821"
         id="path2504" />
      <path
         d="m 181.65507,285.18945 h 10.65972 v 54.7643 h -10.65972 z"
         style="fill:#000000;fill-opacity:1;fill-rule:nonzero;stroke:none;stroke-width:3.62821"
         id="path2506" />
      <path
         d="m 204.57454,301.23343 h 10.65966 v 38.72032 h -10.65966 z m 0,-16.26892 h 10.65966 v 8.50454 h -10.65966 z"
         style="fill:#000000;fill-opacity:1;fill-rule:nonzero;stroke:none;stroke-width:3.62821"
         id="path2508" />
      <path
         d="m 245.18512,321.13418 c -3.56651,0 -5.96119,0.44649 -7.18026,1.3352 -1.2227,0.86715 -1.83584,2.61231 -1.83584,5.23912 0,4.23415 1.34607,6.34941 4.04181,6.34941 3.31617,0 4.97429,-2.67402 4.97429,-8.02201 z m -18.88124,-8.78752 c 0,-7.93852 4.65862,-11.90781 13.9686,-11.90781 5.46412,0 9.42611,0.95787 11.88242,2.86632 2.45632,1.91203 3.68627,5.22096 3.68627,9.93403 v 19.94426 c 0,2.38013 0.17058,4.63689 0.51176,6.77029 h -10.02476 l -0.4646,-5.38429 c -2.1842,4.11804 -5.52576,6.17887 -10.02837,6.17887 -6.87907,0 -10.32228,-4.1035 -10.32228,-12.31053 0,-4.71309 1.25178,-8.10545 3.76245,-10.18806 2.5071,-2.08622 7.06782,-3.12748 13.67113,-3.12748 h 2.23862 v -3.18924 c 0,-1.80319 -0.28688,-3.16017 -0.86354,-4.07444 -0.57688,-0.93972 -1.66535,-1.40777 -3.26538,-1.40777 -1.57824,0 -2.65587,0.4827 -3.22911,1.44402 -0.57326,0.93973 -0.86354,2.42363 -0.86354,4.45183 z"
         style="fill:#000000;fill-opacity:1;fill-rule:nonzero;stroke:none;stroke-width:3.62821"
         id="path2510" />
    </g>
  </g>
</svg>
