<svg xmlns="http://www.w3.org/2000/svg" xmlns:inkscape="http://www.inkscape.org/namespaces/inkscape" xmlns:sodipodi="http://sodipodi.sourceforge.net/DTD/sodipodi-0.dtd" xmlns:xlink="http://www.w3.org/1999/xlink" width="101.46735mm" height="101.28357mm" viewBox="0 0 101.46736 101.28357" version="1.1" id="svg5" xml:space="preserve" inkscape:version="1.2.2 (732a01da63, 2022-12-09)" sodipodi:docname="best_time_symbol.svg"><sodipodi:namedview id="namedview7" pagecolor="#ffffff" bordercolor="#000000" borderopacity="0.25" inkscape:showpageshadow="2" inkscape:pageopacity="0.0" inkscape:pagecheckerboard="0" inkscape:deskcolor="#d1d1d1" inkscape:document-units="mm" showgrid="false" inkscape:zoom="2.1719924" inkscape:cx="82.412813" inkscape:cy="196.13329" inkscape:window-width="2560" inkscape:window-height="1377" inkscape:window-x="-8" inkscape:window-y="-8" inkscape:window-maximized="1" inkscape:current-layer="layer1" /><defs id="defs2"><linearGradient inkscape:collect="always" id="linearGradient8276"><stop style="stop-color:#912798;stop-opacity:0.90384614;" offset="0" id="stop8272" /><stop style="stop-color:#9a2a9f;stop-opacity:0.90384614;" offset="1" id="stop8274" /></linearGradient><linearGradient inkscape:collect="always" id="linearGradient5801"><stop style="stop-color:#651b73;stop-opacity:0.95192307;" offset="0" id="stop5797" /><stop style="stop-color:#a534b8;stop-opacity:0.9471153;" offset="1" id="stop5799" /></linearGradient><linearGradient inkscape:collect="always" xlink:href="#linearGradient5801" id="linearGradient5803" x1="42.934326" y1="95.104263" x2="172.56966" y2="226.26607" gradientUnits="userSpaceOnUse" /><linearGradient inkscape:collect="always" xlink:href="#linearGradient8276" id="linearGradient8278" x1="42.934326" y1="95.104263" x2="172.56966" y2="226.26607" gradientUnits="userSpaceOnUse" /></defs><g inkscape:label="Ebene 1" inkscape:groupmode="layer" id="layer1" transform="matrix(0.74713533,0,0,0.74713533,-27.715532,-68.017804)"><rect style="fill:url(#linearGradient5803);fill-opacity:1;stroke:url(#linearGradient8278);stroke-width:0.669223;stroke-linejoin:round;stroke-dasharray:none;stroke-opacity:1" id="rect491" width="135.13931" height="134.89333" x="37.430344" y="91.372742" ry="15.67938" /><g transform="matrix(0.00949266,0,0,-0.00949266,54.500098,209.26815)" fill="#000000" stroke="none" id="g162" style="fill:#fefefe;fill-opacity:1;stroke:#da7ddf;stroke-width:43.2864;stroke-dasharray:none;stroke-opacity:1"><path d="m 4920,10622 -72,-7 c -1048,-96 -2036,-491 -2841,-1137 -53,-43 -101,-78 -105,-78 -4,0 -36,28 -70,63 l -62,62 91,90 c 114,114 131,140 131,209 0,41 -6,65 -25,98 -37,63 -604,624 -649,643 -49,20 -104,19 -153,-4 -49,-23 -799,-772 -814,-814 -16,-40 -13,-102 4,-145 20,-46 579,-611 643,-649 48,-29 131,-34 174,-12 12,6 68,56 123,110 l 101,99 59,-60 59,-59 -85,-88 C 947,8440 543,7769 290,7048 55,6384 -42,5594 20,4865 150,3357 911,1983 2125,1068 2924,465 3857,110 4880,18 c 187,-16 693,-16 880,0 914,82 1735,366 2480,857 1145,755 1955,1915 2260,3235 203,877 182,1781 -62,2658 -136,492 -382,1028 -673,1471 -345,525 -815,1017 -1325,1386 -577,418 -1223,712 -1915,873 -237,56 -544,104 -752,118 l -103,7 c -750,-1 0,0 -750,-1 z m 767,-797 c 971,-83 1854,-452 2588,-1084 732,-630 1254,-1499 1459,-2431 81,-368 101,-562 101,-990 0,-380 -8,-489 -61,-790 C 9583,3431 8977,2431 8085,1740 7513,1297 6815,988 6110,866 c -311,-54 -400,-61 -790,-61 -390,0 -479,7 -790,61 -1118,194 -2143,825 -2831,1744 -486,648 -774,1374 -876,2210 -26,208 -25,793 0,1000 89,717 303,1326 670,1910 543,862 1382,1528 2342,1860 590,204 1243,287 1852,235 z" id="path134" sodipodi:nodetypes="cccscccsccsccccccccccccccccccccccccccscccsccccccc" style="fill:#fefefe;fill-opacity:1;stroke:#da7ddf;stroke-width:43.2864;stroke-dasharray:none;stroke-opacity:1" /><path d="m 5270,9360 v -240 h 50 50 v 240 240 h -50 -50 z" id="path136" style="fill:#fefefe;fill-opacity:1;stroke:#da7ddf;stroke-width:43.2864;stroke-dasharray:none;stroke-opacity:1" /><path d="m 3180,9028 c -19,-12 -36,-23 -38,-24 -2,-1 217,-387 234,-412 5,-7 84,39 84,49 0,14 -230,409 -238,409 -4,0 -23,-10 -42,-22 z" id="path138" style="fill:#fefefe;fill-opacity:1;stroke:#da7ddf;stroke-width:43.2864;stroke-dasharray:none;stroke-opacity:1" /><path d="m 7296,8844 c -65,-113 -117,-206 -115,-208 20,-15 81,-47 83,-45 11,13 237,411 234,413 -12,9 -76,46 -79,46 -3,0 -58,-93 -123,-206 z" id="path140" style="fill:#fefefe;fill-opacity:1;stroke:#da7ddf;stroke-width:43.2864;stroke-dasharray:none;stroke-opacity:1" /><path d="m 5247,8788 -75,-143 -11,-440 c -6,-242 -16,-593 -21,-780 -18,-611 -29,-1035 -36,-1303 l -7,-263 -54,-26 c -174,-86 -304,-298 -305,-502 -2,-162 50,-296 156,-409 118,-125 258,-186 426,-186 168,0 308,61 426,186 147,156 196,379 127,580 -16,46 -46,110 -67,141 -49,73 -140,156 -211,191 l -55,27 v 57 c 0,31 -16,659 -35,1394 l -35,1337 -70,141 c -39,77 -72,140 -74,140 -3,0 -38,-64 -79,-142 z m 161,-3305 c 71,-33 114,-132 93,-210 -22,-80 -101,-143 -181,-143 -48,0 -110,31 -143,69 -31,38 -51,103 -43,144 27,134 151,198 274,140 z" id="path142" style="fill:#fefefe;fill-opacity:1;stroke:#da7ddf;stroke-width:43.2864;stroke-dasharray:none;stroke-opacity:1" /><path d="m 1621,7466 c -12,-18 -21,-37 -21,-42 0,-10 389,-237 404,-236 5,0 19,18 32,39 l 23,39 -203,117 c -112,64 -206,117 -209,117 -3,0 -15,-15 -26,-34 z" id="path144" style="fill:#fefefe;fill-opacity:1;stroke:#da7ddf;stroke-width:43.2864;stroke-dasharray:none;stroke-opacity:1" /><path d="m 8790,7386 c -107,-62 -195,-117 -197,-122 -2,-5 7,-26 20,-46 l 22,-37 135,78 c 74,42 167,96 207,119 l 71,42 -21,40 c -12,22 -26,40 -32,39 -5,0 -98,-51 -205,-113 z" id="path146" style="fill:#fefefe;fill-opacity:1;stroke:#da7ddf;stroke-width:43.2864;stroke-dasharray:none;stroke-opacity:1" /><path d="m 1049,5373 c -4,-15 0,-93 5,-93 3,0 110,0 236,0 h 230 v 48 47 h -235 c -129,0 -235,-1 -236,-2 z" id="path148" style="fill:#fefefe;fill-opacity:1;stroke:#da7ddf;stroke-width:43.2864;stroke-dasharray:none;stroke-opacity:1" /><path d="m 9120,5328 v -48 h 241 240 l -3,45 -3,46 -238,2 -237,2 z" id="path150" style="fill:#fefefe;fill-opacity:1;stroke:#da7ddf;stroke-width:43.2864;stroke-dasharray:none;stroke-opacity:1" /><path d="m 1805,3353 c -110,-63 -202,-116 -203,-118 -6,-6 8,-39 27,-64 l 18,-24 206,119 206,119 -21,35 c -12,19 -24,38 -27,42 -3,4 -96,-45 -206,-109 z" id="path152" style="fill:#fefefe;fill-opacity:1;stroke:#da7ddf;stroke-width:43.2864;stroke-dasharray:none;stroke-opacity:1" /><path d="m 8611,3429 c -13,-22 -19,-44 -15,-49 14,-13 393,-230 401,-230 5,0 18,18 30,40 l 21,40 -96,57 c -53,31 -146,85 -205,120 -60,34 -110,63 -111,63 -1,0 -13,-18 -25,-41 z" id="path154" style="fill:#fefefe;fill-opacity:1;stroke:#da7ddf;stroke-width:43.2864;stroke-dasharray:none;stroke-opacity:1" /><path d="m 3258,1854 -117,-205 41,-25 c 22,-14 44,-22 48,-17 12,13 230,395 230,403 0,6 -73,51 -81,50 -2,-1 -57,-93 -121,-206 z" id="path156" style="fill:#fefefe;fill-opacity:1;stroke:#da7ddf;stroke-width:43.2864;stroke-dasharray:none;stroke-opacity:1" /><path d="m 7220,2038 c -19,-12 -37,-23 -39,-24 -2,-2 224,-400 235,-413 2,-2 62,30 83,45 4,4 -232,414 -239,414 -3,0 -21,-10 -40,-22 z" id="path158" style="fill:#fefefe;fill-opacity:1;stroke:#da7ddf;stroke-width:43.2864;stroke-dasharray:none;stroke-opacity:1" /><path d="m 5270,1290 v -240 h 50 50 v 240 240 h -50 -50 z" id="path160" style="fill:#fefefe;fill-opacity:1;stroke:#da7ddf;stroke-width:43.2864;stroke-dasharray:none;stroke-opacity:1" /></g></g></svg>