<?xml version="1.0" encoding="UTF-8" standalone="no"?>
<svg
   width="5600.0"
   height="7000.0"
   viewBox="0.0 -7.0 5.6 7.0"
   version="1.1"
   id="svg256"
   sodipodi:docname="holodeck_track_definition.svg"
   inkscape:version="1.2.2 (732a01da63, 2022-12-09)"
   xmlns:inkscape="http://www.inkscape.org/namespaces/inkscape"
   xmlns:sodipodi="http://sodipodi.sourceforge.net/DTD/sodipodi-0.dtd"
   xmlns="http://www.w3.org/2000/svg"
   xmlns:svg="http://www.w3.org/2000/svg">
  <sodipodi:namedview
     id="namedview258"
     pagecolor="#ffffff"
     bordercolor="#000000"
     borderopacity="0.25"
     inkscape:showpageshadow="2"
     inkscape:pageopacity="0.0"
     inkscape:pagecheckerboard="0"
     inkscape:deskcolor="#d1d1d1"
     showgrid="false"
     inkscape:zoom="0.11628571"
     inkscape:cx="2803.4398"
     inkscape:cy="3500"
     inkscape:window-width="1920"
     inkscape:window-height="1017"
     inkscape:window-x="-8"
     inkscape:window-y="-8"
     inkscape:window-maximized="1"
     inkscape:current-layer="svg256" />
  <defs
     id="defs132" />
  <path
     d="M5.1,-1.7 L5.1,-5.55"
     fill="#000000"
     stroke="#000000"
     stroke-width="0.8"
     id="path136" />
  <path
     d="M5.1,-1.7 L5.1,-5.55"
     stroke="#ffffff"
     stroke-width="0.02"
     fill="none"
     style="stroke-miterlimit:4;stroke-dasharray:0.16,0.16;stroke-dashoffset:0,fill-opacity:0"
     id="path138" />
  <path
     d="M5.4799999999999995,-1.7 L5.4799999999999995,-5.55"
     stroke="#ffffff"
     stroke-width="0.02"
     fill="none"
     id="path140" />
  <path
     d="M4.72,-1.7 L4.72,-5.55"
     stroke="#ffffff"
     stroke-width="0.02"
     fill="none"
     id="path142" />
  <path
     d="M5.1,-5.55 A1.0,1.0,0,0,0,4.1,-6.55"
     stroke="#000000"
     stroke-width="0.8"
     fill="none"
     id="path144" />
  <path
     d="M4.72,-5.55 A0.62,0.62,0,0,0,4.1,-6.17"
     stroke="#ffffff"
     stroke-width="0.02"
     fill="none"
     id="path146" />
  <path
     d="M5.4799999999999995,-5.55 A1.38,1.38,0,0,0,4.1,-6.93"
     stroke="#ffffff"
     stroke-width="0.02"
     fill="none"
     id="path148" />
  <path
     d="M5.1,-5.55 A1.0,1.0,0,0,0,4.1,-6.55"
     stroke="#ffffff"
     stroke-width="0.02"
     fill="none"
     style="stroke-miterlimit:4;stroke-dasharray:0.160,0.160;stroke-dashoffset:0"
     id="path150" />
  <path
     d="M4.1,-6.55 L1.4999999999999996,-6.55"
     fill="#000000"
     stroke="#000000"
     stroke-width="0.8"
     id="path152" />
  <path
     d="M 4.1,-6.55 H 1.5"
     stroke="#ffffff"
     stroke-width="0.02"
     fill="none"
     style="display:inline;stroke-miterlimit:4;stroke-dasharray:0.16, 0.16"
     id="path154" />
  <path
     d="M4.1,-6.93 L1.4999999999999996,-6.93"
     stroke="#ffffff"
     stroke-width="0.02"
     fill="none"
     id="path156" />
  <path
     d="M4.1,-6.17 L1.4999999999999996,-6.17"
     stroke="#ffffff"
     stroke-width="0.02"
     fill="none"
     id="path158" />
  <path
     d="M1.4999999999999993,-6.55 A1.0,1.0,0,0,0,0.49999999999999933,-5.55"
     stroke="#000000"
     stroke-width="0.8"
     fill="none"
     id="path160" />
  <path
     d="M1.4999999999999993,-6.17 A0.62,0.62,0,0,0,0.8799999999999993,-5.55"
     stroke="#ffffff"
     stroke-width="0.02"
     fill="none"
     id="path162" />
  <path
     d="M1.4999999999999993,-6.93 A1.38,1.38,0,0,0,0.11999999999999944,-5.55"
     stroke="#ffffff"
     stroke-width="0.02"
     fill="none"
     id="path164" />
  <path
     d="M1.4999999999999993,-6.55 A1.0,1.0,0,0,0,0.49999999999999933,-5.55"
     stroke="#ffffff"
     stroke-width="0.02"
     fill="none"
     style="stroke-miterlimit:4;stroke-dasharray:0.160,0.160;stroke-dashoffset:0"
     id="path166" />
  <path
     d="M0.49999999999999933,-5.55 L0.4999999999999993,-5.2"
     fill="#000000"
     stroke="#000000"
     stroke-width="0.8"
     id="path168" />
  <path
     d="M0.49999999999999933,-5.55 L0.4999999999999993,-5.2"
     stroke="#ffffff"
     stroke-width="0.02"
     fill="none"
     style="stroke-miterlimit:4;stroke-dasharray:0.16,0.16;stroke-dashoffset:0,fill-opacity:0"
     id="path170" />
  <path
     d="M0.11999999999999933,-5.55 L0.11999999999999926,-5.2"
     stroke="#ffffff"
     stroke-width="0.02"
     fill="none"
     id="path172" />
  <path
     d="M0.8799999999999993,-5.55 L0.8799999999999992,-5.2"
     stroke="#ffffff"
     stroke-width="0.02"
     fill="none"
     id="path174" />
  <path
     d="M0.49999999999999933,-5.2 A1.0,1.0,0,0,0,2.2071067811865466,-4.492893218813452"
     stroke="#000000"
     stroke-width="0.8"
     fill="none"
     id="path176" />
  <path
     d="M0.8799999999999993,-5.2 A0.62,0.62,0,0,0,1.9384062043356587,-4.761593795664341"
     stroke="#ffffff"
     stroke-width="0.02"
     fill="none"
     id="path178" />
  <path
     d="M0.11999999999999944,-5.2 A1.38,1.38,0,0,0,2.4758073580374345,-4.224192641962564"
     stroke="#ffffff"
     stroke-width="0.02"
     fill="none"
     id="path180" />
  <path
     d="M0.49999999999999933,-5.2 A1.0,1.0,0,0,0,2.2071067811865466,-4.492893218813452"
     stroke="#ffffff"
     stroke-width="0.02"
     fill="none"
     style="stroke-miterlimit:4;stroke-dasharray:0.160,0.160;stroke-dashoffset:0"
     id="path182" />
  <path
     d="M2.2071067811865466,-4.492893218813452 L2.5606601717798205,-4.846446609406726"
     fill="#000000"
     stroke="#000000"
     stroke-width="0.8"
     id="path184" />
  <path
     d="M2.2071067811865466,-4.492893218813452 L2.5606601717798205,-4.846446609406726"
     stroke="#ffffff"
     stroke-width="0.02"
     fill="none"
     style="stroke-miterlimit:4;stroke-dasharray:0.16,0.16;stroke-dashoffset:0,fill-opacity:0"
     id="path186" />
  <path
     d="M2.4758073580374345,-4.224192641962564 L2.8293607486307084,-4.577746032555838"
     stroke="#ffffff"
     stroke-width="0.02"
     fill="none"
     id="path188" />
  <path
     d="M1.9384062043356587,-4.76159379566434 L2.2919595949289326,-5.115147186257614"
     stroke="#ffffff"
     stroke-width="0.02"
     fill="none"
     id="path190" />
  <path
     d="M2.56066017177982,-4.846446609406725 A1.0,1.0,0,1,1,3.267766952966368,-3.1393398282201783"
     stroke="#000000"
     stroke-width="0.8"
     fill="none"
     id="path192" />
  <path
     d="M2.8293607486307084,-4.5777460325558375 A0.62,0.62,0,1,1,3.267766952966368,-3.519339828220178"
     stroke="#ffffff"
     stroke-width="0.02"
     fill="none"
     id="path194" />
  <path
     d="M2.291959594928932,-5.115147186257613 A1.38,1.38,0,1,1,3.2677669529663675,-2.7593398282201784"
     stroke="#ffffff"
     stroke-width="0.02"
     fill="none"
     id="path196" />
  <path
     d="M2.56066017177982,-4.846446609406725 A1.0,1.0,0,1,1,3.267766952966368,-3.1393398282201783"
     stroke="#ffffff"
     stroke-width="0.02"
     fill="none"
     style="stroke-miterlimit:4;stroke-dasharray:0.160,0.160;stroke-dashoffset:0"
     id="path198" />
  <path
     d="M3.2677669529663675,-3.1393398282201783 L1.5677669529663676,-3.1393398282201788"
     fill="#000000"
     stroke="#000000"
     stroke-width="0.8"
     id="path200" />
  <path
     d="M3.2677669529663675,-3.1393398282201783 L1.5677669529663676,-3.1393398282201788"
     stroke="#ffffff"
     stroke-width="0.02"
     fill="none"
     style="stroke-miterlimit:4;stroke-dasharray:0.16,0.16;stroke-dashoffset:0,fill-opacity:0"
     id="path202" />
  <path
     d="m 3.267767,-3.5193398 h -1.7"
     stroke="#ffffff"
     stroke-width="0.02"
     fill="none"
     id="path204"
     style="display:inline" />
  <path
     d="M3.2677669529663675,-2.7593398282201784 L1.5677669529663676,-2.759339828220179"
     stroke="#ffffff"
     stroke-width="0.02"
     fill="none"
     id="path206" />
  <path
     d="M1.5677669529663674,-3.1393398282201788 A1.0,1.0,0,0,0,0.8606601717798197,-1.4322330470336313"
     stroke="#000000"
     stroke-width="0.8"
     fill="none"
     id="path208" />
  <path
     d="M1.5677669529663674,-2.759339828220179 A0.62,0.62,0,0,0,1.1293607486307078,-1.7009336238845194"
     stroke="#ffffff"
     stroke-width="0.02"
     fill="none"
     id="path210" />
  <path
     d="M1.5677669529663674,-3.5193398282201787 A1.38,1.38,0,0,0,0.5919595949289317,-1.1635324701827434"
     stroke="#ffffff"
     stroke-width="0.02"
     fill="none"
     id="path212" />
  <path
     d="M1.5677669529663674,-3.1393398282201788 A1.0,1.0,0,0,0,0.8606601717798197,-1.4322330470336313"
     stroke="#ffffff"
     stroke-width="0.02"
     fill="none"
     style="stroke-miterlimit:4;stroke-dasharray:0.160,0.160;stroke-dashoffset:0"
     id="path214" />
  <path
     d="M0.8606601717798196,-1.4322330470336315 L1.567766952966367,-0.7251262658470837"
     fill="#000000"
     stroke="#000000"
     stroke-width="0.8"
     id="path216" />
  <path
     d="M0.8606601717798196,-1.4322330470336315 L1.567766952966367,-0.7251262658470837"
     stroke="#ffffff"
     stroke-width="0.02"
     fill="none"
     style="stroke-miterlimit:4;stroke-dasharray:0.16,0.16;stroke-dashoffset:0,fill-opacity:0"
     id="path218" />
  <path
     d="M0.5919595949289314,-1.1635324701827436 L1.2990663761154786,-0.45642568899619584"
     stroke="#ffffff"
     stroke-width="0.02"
     fill="none"
     id="path220" />
  <path
     d="M1.1293607486307078,-1.7009336238845194 L1.836467529817255,-0.9938268426979716"
     stroke="#ffffff"
     stroke-width="0.02"
     fill="none"
     id="path222" />
  <path
     d="M1.5677669529663671,-0.7251262658470834 A1.0,1.0,0,0,0,2.274873734152915,-0.43223304703363086"
     stroke="#000000"
     stroke-width="0.8"
     fill="none"
     id="path224" />
  <path
     d="M1.8364675298172553,-0.9938268426979715 A0.62,0.62,0,0,0,2.274873734152915,-0.8122330470336309"
     stroke="#ffffff"
     stroke-width="0.02"
     fill="none"
     id="path226" />
  <path
     d="m 1.2990664,-0.45642569 a 1.38,1.38 0 0 0 0.9758073,0.40419264"
     stroke="#ffffff"
     stroke-width="0.02"
     fill="none"
     id="path228"
     style="display:inline" />
  <path
     d="M1.5677669529663671,-0.7251262658470834 A1.0,1.0,0,0,0,2.274873734152915,-0.43223304703363086"
     stroke="#ffffff"
     stroke-width="0.02"
     fill="none"
     style="stroke-miterlimit:4;stroke-dasharray:0.160,0.160;stroke-dashoffset:0"
     id="path230" />
  <path
     d="M2.2748737341529144,-0.43223304703363086 L4.099873734152914,-0.43223304703363014"
     fill="#000000"
     stroke="#000000"
     stroke-width="0.8"
     id="path232" />
  <path
     d="M2.2748737341529144,-0.43223304703363086 L4.099873734152914,-0.43223304703363014"
     stroke="#ffffff"
     stroke-width="0.02"
     fill="none"
     style="stroke-miterlimit:4;stroke-dasharray:0.16,0.16;stroke-dashoffset:0,fill-opacity:0"
     id="path234" />
  <path
     d="M2.2748737341529144,-0.05223304703363085 L4.099873734152914,-0.052233047033630145"
     stroke="#ffffff"
     stroke-width="0.02"
     fill="none"
     id="path236" />
  <path
     d="M2.2748737341529144,-0.8122330470336309 L4.099873734152914,-0.8122330470336302"
     stroke="#ffffff"
     stroke-width="0.02"
     fill="none"
     id="path238" />
  <path
     d="M4.099873734152914,-0.4322330470336302 A1.0,1.0,0,0,0,5.099873734152914,-1.43223304703363"
     stroke="#000000"
     stroke-width="0.8"
     fill="none"
     id="path240" />
  <path
     d="M4.099873734152914,-0.8122330470336302 A0.62,0.62,0,0,0,4.719873734152914,-1.43223304703363"
     stroke="#ffffff"
     stroke-width="0.02"
     fill="none"
     id="path242" />
  <path
     d="M4.099873734152914,-0.0522330470336303 A1.38,1.38,0,0,0,5.479873734152914,-1.4322330470336297"
     stroke="#ffffff"
     stroke-width="0.02"
     fill="none"
     id="path244" />
  <path
     d="M4.099873734152914,-0.4322330470336302 A1.0,1.0,0,0,0,5.099873734152914,-1.43223304703363"
     stroke="#ffffff"
     stroke-width="0.02"
     fill="none"
     style="stroke-miterlimit:4;stroke-dasharray:0.160,0.160;stroke-dashoffset:0"
     id="path246" />
  <path
     d="M5.099873734152914,-1.4322330470336297 L5.099873734152914,-1.7022330470336298"
     fill="#000000"
     stroke="#000000"
     stroke-width="0.8"
     id="path248" />
  <path
     d="M5.099873734152914,-1.4322330470336297 L5.099873734152914,-1.7022330470336298"
     stroke="#ffffff"
     stroke-width="0.02"
     fill="none"
     style="stroke-miterlimit:4;stroke-dasharray:0.16,0.16;stroke-dashoffset:0,fill-opacity:0"
     id="path250" />
  <path
     d="M5.479873734152914,-1.4322330470336295 L5.479873734152914,-1.7022330470336295"
     stroke="#ffffff"
     stroke-width="0.02"
     fill="none"
     id="path252" />
  <path
     d="M4.719873734152914,-1.43223304703363 L4.719873734152914,-1.70223304703363"
     stroke="#ffffff"
     stroke-width="0.02"
     fill="none"
     id="path254" />
</svg>
